<mxfile host="app.diagrams.net" modified="2022-01-27T08:56:32.897Z" agent="5.0 (Macintosh; Intel Mac OS X 10_15_7) AppleWebKit/537.36 (KHTML, like Gecko) Chrome/96.0.4664.110 Safari/537.36" etag="-lTXhHkeCJ7_nPy0UpZ-" version="16.4.7" type="github">
  <diagram id="N4CEanCRNSqffaU_9qj7" name="Page-1">
    <mxGraphModel dx="1496" dy="969" grid="1" gridSize="10" guides="1" tooltips="1" connect="1" arrows="1" fold="1" page="1" pageScale="1" pageWidth="850" pageHeight="1100" math="0" shadow="0">
      <root>
        <mxCell id="0" />
        <mxCell id="1" parent="0" />
      </root>
    </mxGraphModel>
  </diagram>
</mxfile>
